<?xml version="1.0" standalone="no"?>
<!DOCTYPE svg PUBLIC "-//W3C//DTD SVG 20010904//EN"
 "http://www.w3.org/TR/2001/REC-SVG-20010904/DTD/svg10.dtd">
<svg version="1.0" xmlns="http://www.w3.org/2000/svg"
 width="524.000000pt" height="587.000000pt" viewBox="0 0 524.000000 587.000000"
 preserveAspectRatio="xMidYMid meet">
<metadata>
Created by potrace 1.16, written by Peter Selinger 2001-2019
</metadata>
<g transform="translate(0.000000,587.000000) scale(0.100000,-0.100000)"
fill="#000000" stroke="none">
<path d="M2427 4915 c-388 -55 -742 -208 -1042 -449 -416 -335 -687 -816 -766
-1361 -15 -107 -15 -416 0 -535 17 -126 71 -343 116 -466 113 -302 333 -626
569 -838 l74 -66 -18 59 c-27 84 -40 194 -47 376 -14 382 65 730 258 1135 51
107 160 301 212 378 16 24 27 45 25 48 -10 10 -203 -53 -294 -96 -223 -105
-394 -260 -488 -442 -20 -39 -36 -65 -36 -59 0 6 13 65 29 130 77 308 200 541
390 732 212 213 468 331 1036 474 489 124 713 206 1017 376 152 85 388 254
388 277 0 7 -159 97 -258 147 -137 68 -341 132 -528 166 -153 28 -489 35 -637
14z"/>
<path d="M3855 4473 c-90 -293 -248 -595 -396 -757 -175 -191 -365 -289 -701
-361 l-77 -17 -15 -51 c-16 -57 -38 -170 -58 -292 -8 -51 -13 -177 -12 -350 0
-238 3 -281 21 -365 74 -331 236 -632 427 -791 156 -131 317 -211 503 -248
114 -24 162 -25 283 -11 128 15 177 29 268 72 150 73 295 237 452 511 157 276
238 549 260 872 39 609 -203 1223 -650 1648 -85 80 -219 192 -267 220 -8 5
-20 -20 -38 -80z"/>
<path d="M2250 3269 c-130 -21 -115 -10 -170 -120 -154 -305 -256 -641 -312
-1024 -20 -137 -17 -484 5 -625 41 -260 131 -471 272 -636 42 -48 49 -53 140
-78 174 -48 331 -68 530 -68 169 1 368 19 440 41 30 9 30 9 -10 10 -60 2 -213
30 -273 51 -113 40 -269 160 -364 280 -139 177 -244 405 -304 666 -24 104 -28
145 -32 329 -3 174 0 238 17 375 28 210 69 420 126 632 25 92 45 169 45 173 0
7 -42 5 -110 -6z"/>
</g>
</svg>
