<?xml version="1.0" standalone="no"?>
<!DOCTYPE svg PUBLIC "-//W3C//DTD SVG 20010904//EN"
 "http://www.w3.org/TR/2001/REC-SVG-20010904/DTD/svg10.dtd">
<svg version="1.0" xmlns="http://www.w3.org/2000/svg"
 width="448.000000pt" height="290.000000pt" viewBox="0 0 448.000000 290.000000"
 preserveAspectRatio="xMidYMid meet">
<metadata>
Created by potrace 1.16, written by Peter Selinger 2001-2019
</metadata>
<g transform="translate(0.000000,290.000000) scale(0.100000,-0.100000)"
fill="#000000" stroke="none">
<path d="M1185 2469 c-566 -230 -1036 -421 -1042 -423 -7 -3 -10 -12 -7 -21 3
-8 10 -12 15 -9 5 3 7 9 4 13 -2 5 14 16 37 24 31 13 45 14 55 5 7 -6 16 -8
20 -4 3 3 1 6 -5 6 -32 0 -4 21 65 49 58 24 79 28 90 20 11 -9 12 -9 8 4 -7
17 27 33 46 21 8 -4 9 -3 5 4 -4 7 -2 13 3 13 20 3 26 5 49 17 29 17 48 6 29
-16 -13 -15 -13 -19 -1 -30 11 -10 14 -10 15 0 1 7 2 18 4 23 1 6 3 15 4 20 1
6 6 3 11 -5 7 -11 10 -12 10 -2 0 8 -10 16 -21 19 -16 5 -1 14 62 39 93 38
107 41 89 19 -7 -9 -10 -18 -6 -22 8 -8 13 -2 18 22 4 26 19 36 42 29 11 -4
16 -2 12 4 -6 11 48 34 58 25 3 -4 6 -2 6 4 0 14 56 34 75 27 15 -6 60 14 51
24 -12 11 98 50 112 39 8 -7 12 -5 12 6 0 18 34 32 51 21 8 -4 9 -3 5 4 -4 7
-5 12 -3 12 2 0 120 47 263 105 142 58 266 106 274 108 8 1 17 5 20 8 3 3 90
40 194 82 129 53 193 74 200 67 16 -16 26 -12 26 10 0 22 10 26 26 10 7 -7 18
-7 35 0 20 9 21 10 3 7 -12 -3 -28 -1 -35 4 -11 7 -9 9 6 10 11 1 23 1 28 0 4
0 7 4 7 9 0 6 7 10 15 10 8 0 13 -6 11 -12 -1 -7 -1 -10 1 -5 9 15 22 6 17
-10 -4 -13 -3 -14 3 -5 7 9 19 9 57 -4 36 -12 45 -19 35 -26 -11 -8 -10 -9 3
-4 24 7 80 -13 71 -27 -4 -6 -1 -7 6 -3 14 9 73 -12 84 -30 4 -7 14 -11 22 -7
9 3 23 -1 31 -8 9 -8 22 -14 28 -15 6 0 17 -2 24 -2 7 -1 11 -6 7 -12 -3 -5
-12 -7 -19 -4 -7 3 -18 -1 -24 -9 -10 -12 -8 -14 10 -12 13 1 29 3 36 4 7 0
10 6 7 11 -3 6 1 10 9 10 10 0 13 -6 10 -17 -4 -13 -3 -14 3 -5 11 15 46 5 37
-10 -4 -6 1 -8 14 -4 12 4 22 1 25 -8 4 -10 14 -12 29 -8 21 5 22 4 8 -14 -14
-17 -14 -18 1 -6 14 10 25 10 60 -4 24 -10 47 -22 51 -28 4 -6 8 -8 8 -4 0 6
28 -4 105 -37 17 -7 51 -21 78 -30 26 -10 47 -24 47 -31 0 -7 4 -16 10 -19 6
-3 7 1 4 9 -8 20 -5 20 45 -2 30 -14 38 -21 29 -30 -8 -8 -6 -11 10 -9 11 0
18 5 16 9 -3 4 0 8 5 8 6 0 11 -4 11 -10 0 -5 3 -9 8 -8 15 4 82 -24 77 -32
-3 -5 5 -14 17 -20 22 -11 22 -10 4 4 -11 9 -15 16 -8 16 12 0 64 -21 72 -30
3 -3 12 -6 20 -8 32 -6 70 -25 65 -32 -6 -10 23 -22 35 -15 4 3 25 -3 46 -12
22 -9 41 -17 44 -18 3 -1 17 -5 32 -9 15 -4 29 -14 32 -22 3 -7 11 -12 18 -9
18 7 250 -90 241 -100 -5 -4 -3 -5 3 -2 13 8 74 -11 74 -22 0 -4 6 -8 14 -8 8
0 35 -8 61 -17 32 -13 45 -23 41 -32 -4 -11 -1 -12 12 -6 12 7 31 3 62 -11 47
-21 54 -24 70 -26 5 0 9 -63 9 -150 0 -136 -2 -149 -17 -144 -13 4 -12 2 3
-10 18 -13 19 -19 8 -46 -6 -17 -7 -31 -3 -31 10 0 13 -260 4 -284 -3 -9 -11
-13 -18 -10 -6 3 -3 -1 7 -9 14 -12 17 -32 17 -134 0 -81 -4 -123 -12 -132
-10 -11 -10 -14 0 -18 6 -3 12 -14 12 -25 0 -15 -5 -19 -20 -15 -11 3 -18 2
-15 -3 3 -4 -77 -41 -178 -80 -100 -40 -196 -79 -214 -87 -18 -8 -37 -11 -44
-7 -7 4 -9 3 -6 -3 8 -13 -50 -36 -67 -26 -6 3 -8 2 -3 -2 7 -8 -21 -23 -72
-40 -18 -5 -22 -4 -16 5 5 9 4 11 -4 6 -6 -4 -8 -12 -5 -18 4 -6 1 -9 -7 -6
-8 3 -20 -2 -28 -9 -9 -9 -24 -12 -40 -8 -16 3 -21 2 -13 -3 9 -6 0 -14 -31
-26 -24 -9 -50 -15 -58 -13 -8 2 -10 2 -6 -1 13 -7 -72 -42 -101 -42 -14 0
-22 -3 -18 -7 9 -9 -154 -74 -167 -66 -5 3 -15 -1 -21 -9 -15 -19 -44 -29 -51
-18 -4 6 2 10 12 10 14 0 15 2 4 9 -8 5 -11 16 -8 25 4 9 2 16 -3 16 -10 0
-14 -14 -11 -38 2 -10 -2 -11 -18 -2 -14 7 -21 7 -21 0 0 -5 6 -10 14 -10 8 0
16 -6 19 -14 4 -9 -9 -19 -38 -31 -54 -20 -74 -12 -48 18 l18 22 -22 -19 c-13
-10 -21 -22 -18 -25 8 -14 -13 -33 -38 -34 -14 -1 -23 -5 -20 -10 4 -7 -16
-11 -46 -9 -8 0 -20 -6 -25 -13 -6 -8 -42 -26 -80 -41 -67 -27 -69 -27 -84 -8
-9 12 -13 13 -10 4 3 -8 -6 -23 -19 -33 -34 -27 -139 -66 -165 -61 -20 4 -21
3 -4 -4 19 -8 19 -9 -4 -15 -16 -4 -27 -1 -35 10 -10 13 -14 13 -20 3 -5 -9
-4 -11 3 -6 7 4 12 1 12 -8 0 -17 -35 -31 -67 -27 -12 1 -30 -3 -40 -9 -15 -9
-13 -10 12 -5 46 10 27 -1 -60 -34 l-79 -31 -58 22 c-43 15 -56 24 -46 30 9 7
8 8 -5 4 -22 -7 -210 67 -200 79 4 4 3 5 -3 2 -17 -10 -75 13 -67 26 3 6 1 7
-6 3 -12 -8 -71 13 -176 59 -27 13 -71 31 -97 40 -27 10 -48 19 -48 21 0 15
14 33 23 27 6 -4 7 -1 2 7 -6 10 -12 7 -24 -9 -19 -25 -46 -20 -54 10 -3 10
-13 19 -24 18 -17 0 -17 -1 1 -8 11 -4 15 -10 10 -13 -5 -3 -27 3 -49 13 -22
11 -29 16 -16 13 16 -4 21 -3 16 6 -4 7 -18 9 -35 5 -21 -5 -33 -1 -49 16 -12
13 -21 18 -21 11 0 -9 -6 -9 -25 0 -13 6 -22 15 -18 21 3 6 1 7 -6 3 -16 -10
-102 24 -94 37 3 6 1 7 -6 3 -6 -4 -20 -4 -31 -1 -15 5 -18 11 -11 22 11 21 3
50 -17 58 -14 5 -15 4 -4 -6 14 -15 16 -59 3 -59 -10 0 -167 65 -193 80 -10 5
-24 10 -33 10 -9 0 -12 6 -9 18 4 12 3 14 -4 4 -7 -11 -41 0 -163 49 -84 34
-160 65 -169 70 -8 4 -43 18 -77 31 -34 12 -60 25 -57 29 2 4 -2 7 -9 6 -32
-1 -48 4 -42 14 4 6 1 10 -6 8 -23 -3 -43 1 -58 10 -12 8 -12 12 3 26 9 10 14
20 11 23 -3 3 -12 -4 -20 -15 -13 -19 -19 -20 -50 -11 -19 6 -31 16 -28 21 3
6 1 7 -5 4 -16 -11 -41 3 -35 19 3 7 8 13 11 12 19 -2 32 3 32 13 0 8 -5 8
-15 -1 -12 -10 -16 -9 -21 3 -3 9 -3 21 1 27 3 5 -1 10 -9 10 -12 0 -16 -11
-16 -42 l0 -43 1037 -420 c570 -231 1044 -421 1052 -423 9 -1 483 186 1054
416 l1037 419 0 508 0 508 -287 117 c-159 65 -627 255 -1041 424 -415 168
-757 306 -760 305 -4 0 -470 -189 -1037 -420z"/>
<path d="M2189 2653 c-13 -16 -12 -17 4 -4 15 12 17 11 17 -3 0 -15 -18 -20
-58 -19 -7 1 -11 -2 -8 -5 9 -9 -54 -33 -67 -25 -6 3 -7 1 -3 -5 9 -15 1 -15
-25 -2 -13 7 -19 7 -19 0 0 -5 8 -10 18 -11 14 0 14 -2 -3 -8 -11 -5 -31 -4
-44 1 -21 7 -22 7 -11 -7 10 -12 8 -16 -16 -26 -16 -6 -33 -12 -39 -13 -5 -1
-16 -5 -24 -10 -9 -6 -17 -3 -23 8 -13 24 -37 20 -31 -5 7 -25 -14 -41 -42
-33 -11 4 -17 3 -13 -1 9 -9 -13 -21 -106 -59 -55 -22 -71 -25 -78 -14 -8 10
-9 10 -5 -2 2 -10 -17 -23 -67 -43 -75 -29 -127 -52 -163 -69 -11 -6 -25 -8
-31 -4 -5 3 -20 -3 -32 -14 -14 -12 -31 -18 -42 -14 -10 3 -18 0 -18 -6 0 -6
-5 -8 -12 -4 -6 4 -8 3 -5 -3 9 -15 -270 -127 -313 -126 -31 1 -32 0 -10 -7
22 -7 22 -8 5 -11 -44 -5 -50 -4 -63 11 -11 13 -11 11 -2 -8 9 -19 7 -24 -13
-33 -17 -8 -31 -8 -43 -1 -14 7 -22 6 -31 -3 -6 -7 -9 -16 -6 -19 7 -7 -61
-37 -88 -39 -10 -1 -16 -3 -13 -6 2 -3 -26 -17 -63 -32 -52 -21 -73 -24 -88
-17 -16 8 -18 8 -8 -2 10 -11 -4 -20 -72 -50 -47 -20 -90 -42 -97 -50 -11 -12
-10 -12 4 -2 10 8 18 9 22 3 11 -18 4 -275 -8 -283 -8 -5 -7 -8 2 -8 15 0 16
-46 2 -55 -8 -5 -7 -11 0 -20 8 -9 11 -59 10 -142 -3 -178 -5 -168 36 -192 19
-12 42 -21 50 -21 9 0 12 -5 8 -12 -5 -8 -2 -9 9 -5 18 7 67 -10 79 -28 4 -5
8 -6 8 -1 0 5 6 4 13 -2 12 -10 18 -12 37 -12 6 0 10 -8 10 -17 0 -14 2 -15 9
-5 6 11 15 9 44 -7 19 -11 38 -17 43 -13 4 4 5 2 1 -3 -3 -6 -2 -17 4 -25 7
-13 9 -12 9 3 0 9 5 17 11 17 5 0 8 -4 5 -9 -3 -5 0 -9 7 -8 41 1 49 -3 44
-26 -5 -19 -4 -20 6 -6 11 15 17 14 65 -4 37 -14 49 -23 40 -29 -8 -5 -2 -6
16 -2 20 5 27 3 22 -4 -3 -6 -2 -13 4 -17 5 -3 10 -2 10 3 0 6 9 8 21 5 14 -4
17 -8 9 -13 -9 -5 -9 -9 -1 -14 6 -4 11 -2 11 3 0 6 5 11 11 11 5 0 7 -4 4
-10 -3 -6 5 -10 19 -10 14 0 27 -4 31 -10 3 -5 12 -7 19 -4 7 3 20 -2 29 -10
8 -8 17 -13 19 -10 3 2 27 -5 54 -17 27 -12 52 -22 57 -21 4 1 7 -2 7 -8 0 -5
8 -10 17 -10 27 0 203 -72 197 -81 -2 -4 0 -10 5 -13 5 -4 12 -2 16 4 4 6 11
8 16 4 5 -3 7 -10 4 -15 -3 -5 1 -6 9 -3 18 7 106 -25 106 -38 0 -5 4 -7 9 -4
15 10 144 -48 149 -67 3 -13 8 -15 17 -7 13 11 30 6 100 -25 16 -7 64 -25 105
-40 41 -16 89 -35 105 -44 17 -8 32 -16 35 -16 41 -11 59 -19 55 -25 -3 -4 12
-4 33 1 20 5 46 6 57 3 14 -4 16 -3 7 4 -11 7 -10 11 4 16 12 5 23 1 32 -11
13 -17 13 -16 7 6 -5 16 -4 21 4 17 6 -4 11 -2 11 5 0 6 8 9 20 6 11 -3 20 -1
20 5 0 5 6 8 13 5 6 -2 17 3 22 10 6 8 17 15 25 17 8 2 29 9 45 15 17 7 37 14
45 16 8 2 17 4 20 5 3 1 14 2 25 1 15 -1 16 1 7 7 -9 6 1 14 35 26 26 10 78
31 115 47 37 16 74 26 81 23 8 -3 17 2 20 10 8 19 34 21 40 4 2 -7 3 -5 2 4
-2 11 4 19 13 20 10 0 22 2 28 2 6 1 18 6 25 12 16 11 49 27 100 47 32 13 37
13 46 -2 9 -13 11 -13 10 -1 -1 8 2 16 7 17 5 1 12 7 17 14 4 7 24 13 43 13
21 0 36 5 36 12 0 17 26 24 39 11 10 -9 12 -9 9 2 -2 10 26 25 87 49 50 19
107 42 129 53 34 15 40 16 53 3 8 -8 20 -11 26 -7 7 4 21 7 32 5 l20 -2 -20 9
c-12 5 -25 5 -32 -1 -7 -5 -14 -5 -17 1 -8 12 44 40 79 43 14 1 25 5 25 9 0 4
15 12 33 19 17 7 50 20 72 30 22 10 51 21 65 24 14 4 40 14 59 23 18 8 39 16
45 18 6 1 33 12 60 24 28 12 58 19 70 16 15 -5 17 -4 8 3 -11 7 -10 11 5 17
10 5 25 7 33 6 10 -1 11 1 4 6 -14 10 -18 117 -5 108 6 -3 13 0 17 6 5 8 3 9
-6 4 -10 -6 -12 -4 -7 8 3 10 2 17 -3 17 -6 0 -10 39 -9 95 1 65 5 95 12 95 9
0 9 2 1 8 -8 5 -12 61 -11 180 l0 174 -42 23 c-23 13 -44 24 -46 25 -3 0 -10
0 -16 0 -5 0 -7 5 -3 12 4 7 3 8 -4 4 -7 -4 -18 -4 -24 1 -14 8 -19 10 -42 12
-8 0 -21 8 -30 16 -8 9 -19 16 -23 15 -15 0 -78 22 -100 36 -13 8 -23 12 -23
8 0 -3 -11 1 -25 10 -13 9 -31 16 -40 16 -9 0 -18 7 -21 15 -4 8 -11 12 -16 9
-12 -7 -88 25 -88 38 0 4 -13 8 -30 8 -17 0 -30 5 -30 13 0 6 -12 13 -27 13
-16 1 -68 18 -118 39 -91 37 -121 55 -95 55 9 0 6 6 -8 16 -13 9 -26 13 -29
10 -4 -3 -1 -6 5 -6 7 0 12 -4 12 -10 0 -17 -29 -11 -50 10 -11 11 -20 16 -20
11 0 -5 -13 -4 -29 2 -17 6 -27 15 -24 21 3 5 1 6 -4 3 -6 -4 -37 4 -69 18
-33 13 -53 24 -46 25 7 0 10 5 7 10 -3 6 0 10 7 10 9 0 9 3 -2 10 -8 5 -19 10
-25 10 -5 0 -4 -4 3 -9 11 -6 11 -10 0 -19 -10 -8 -26 -4 -63 13 -28 13 -56
24 -62 24 -7 1 -13 6 -13 12 0 5 -4 8 -9 5 -11 -7 -92 25 -86 34 3 4 -1 8 -8
7 -6 0 -21 1 -32 2 -17 1 -18 3 -5 12 13 9 12 10 -2 5 -10 -3 -28 -1 -40 4
-13 5 -17 9 -10 9 7 1 10 6 6 12 -5 8 -8 8 -14 0 -5 -9 -14 -9 -35 -1 -16 6
-25 14 -20 18 6 4 11 14 13 22 2 11 -1 11 -11 -2 -8 -10 -20 -18 -28 -18 -11
0 -11 2 1 11 12 8 9 9 -12 5 -31 -7 -33 -4 -17 27 9 20 9 20 -4 5 -19 -24 -31
-23 -24 2 3 11 1 23 -4 26 -5 3 -6 10 -3 16 4 7 2 8 -5 4 -6 -4 -9 -11 -6 -16
3 -5 -3 -11 -12 -13 -17 -4 -17 -5 0 -6 14 -1 27 -31 13 -31 -8 0 -121 52
-126 58 -3 4 -16 8 -30 10 -14 1 -29 8 -35 15 -5 7 -17 11 -27 9 -9 -2 -25 6
-36 18 -18 20 -20 20 -33 3z m957 -402 l919 -378 0 -348 0 -348 -150 -59 c-82
-32 -495 -196 -916 -363 -421 -168 -769 -305 -773 -305 -3 0 -99 36 -211 81
-112 44 -210 77 -216 73 -7 -4 -9 -3 -6 3 3 5 -301 132 -703 293 l-710 284 0
346 0 346 918 376 c504 207 920 377 923 377 4 1 420 -169 925 -378z"/>
<path d="M3136 1934 c-223 -50 -346 -197 -346 -415 0 -273 191 -420 530 -406
63 2 139 10 168 17 l52 12 0 99 c0 54 -2 99 -4 99 -2 0 -23 -9 -47 -19 -68
-30 -136 -36 -209 -17 -122 32 -174 99 -174 226 0 114 34 169 128 211 64 28
162 28 236 0 30 -12 58 -21 63 -21 10 0 9 162 -2 178 -26 42 -270 64 -395 36z"/>
<path d="M988 1933 l-58 -4 0 -402 0 -402 145 3 145 3 2 174 3 173 128 -179
128 -179 73 0 c40 0 114 3 164 6 l92 7 -31 41 c-17 23 -83 112 -146 199 l-116
158 132 194 c72 106 131 196 131 199 0 3 -73 6 -162 6 l-163 -1 -115 -160
-115 -161 -5 163 -5 164 -85 1 c-47 0 -111 -1 -142 -3z"/>
<path d="M1888 1934 c-5 -4 -8 -189 -8 -412 l0 -404 308 4 c343 5 376 11 449
73 101 87 112 250 21 318 -14 11 -50 27 -79 37 l-54 17 35 15 c113 48 144 202
58 285 -63 61 -91 66 -423 71 -165 2 -303 0 -307 -4z m478 -177 c13 -16 24
-39 24 -53 0 -63 -48 -94 -145 -94 l-65 0 0 91 0 91 81 -4 c74 -3 83 -6 105
-31z m-6 -327 c42 -42 36 -103 -14 -135 -13 -9 -56 -19 -95 -22 l-71 -6 0 92
0 91 80 0 c66 0 83 -3 100 -20z"/>
</g>
</svg>
